<svg width="64" height="50" viewBox="0 0 64 50" fill="none" xmlns="http://www.w3.org/2000/svg">
<path d="M26.7262 3.10947C24.1045 4.81076 22.0407 6.21921 22.1243 6.23315C22.208 6.26104 24.2997 6.19132 26.768 6.0937L31.2583 5.92636L31.0631 6.21921C30.9515 6.38655 28.3438 10.1238 25.2619 14.5165C22.1801 18.9092 19.6421 22.5767 19.6142 22.6604C19.5724 22.758 20.9251 22.7998 23.7977 22.7998H28.037L35.4976 12.2016C39.6113 6.3726 43.2231 1.24084 43.5438 0.794603L44.1156 -0.000261307H37.7985H31.4814L26.7262 3.10947Z" fill="#FF6F20"/>
<path d="M42.7625 11.4773L34.3816 22.94L38.4396 23.0237C42.7486 23.1074 43.2088 23.1771 44.8682 23.9162C47.5875 25.1155 49.9024 27.8487 50.6693 30.7771C51.0598 32.2553 51.0598 34.5144 50.6693 36.0204C49.8187 39.2557 47.4899 41.5566 44.0176 42.5607C42.5255 42.9929 39.0671 43.0208 37.7563 42.6164C36.557 42.2399 35.2183 41.5427 34.1585 40.7339C33.6425 40.3434 33.1823 40.0227 33.1126 40.0227C32.9313 40.0227 27.0326 42.5467 26.8931 42.6722C26.67 42.8953 30.1284 46.1585 31.4392 46.9673C38.2583 51.1647 46.9321 50.2722 52.6495 44.7779C55.9684 41.5845 57.6279 37.7496 57.6279 33.2593C57.6279 26.7889 53.8767 20.8483 47.9919 18.0314L46.9181 17.5154L53.4583 8.84165C57.0561 4.05852 59.9985 0.112083 59.9985 0.0702477C59.9985 0.0284119 58.0044 0.000522614 55.578 0.000522614H51.1435L42.7625 11.4773Z" fill="#FF6F20"/>
<path d="M1.16 37C1.02667 37 0.96 36.9333 0.96 36.8V26.536C0.96 26.4027 1.02667 26.336 1.16 26.336H5.496C5.624 26.336 5.73067 26.3707 5.816 26.44L7.656 28.264C7.71467 28.3173 7.74933 28.3627 7.76 28.4C7.776 28.4373 7.784 28.4987 7.784 28.584V30.776C7.784 30.8453 7.75733 30.9067 7.704 30.96L6.824 31.816L6.08 32.456L6.96 33.624L7.864 35.56C7.88533 35.608 7.90133 35.656 7.912 35.704C7.928 35.7467 7.936 35.8 7.936 35.864V36.8C7.936 36.9333 7.86933 37 7.736 37H5.624C5.50667 37 5.42667 36.9467 5.384 36.84L4.096 33.096H3.496V36.8C3.496 36.9333 3.42933 37 3.296 37H1.16ZM4.376 31.136C4.81867 31.136 5.12 31.0453 5.28 30.864C5.44 30.6773 5.52 30.3307 5.52 29.824C5.52 29.312 5.44 28.9653 5.28 28.784C5.12 28.5973 4.81867 28.504 4.376 28.504C3.93867 28.504 3.63733 28.5973 3.472 28.784C3.30667 28.9653 3.224 29.312 3.224 29.824C3.224 30.3307 3.30667 30.6773 3.472 30.864C3.63733 31.0453 3.93867 31.136 4.376 31.136ZM9.41 37C9.27667 37 9.21 36.9333 9.21 36.8V28.4C9.21 28.2667 9.27667 28.2 9.41 28.2H11.538C11.6713 28.2 11.738 28.2667 11.738 28.4V36.8C11.738 36.9333 11.6713 37 11.538 37H9.41ZM9.37 27.536C9.26333 27.536 9.21 27.4827 9.21 27.376V26.36C9.21 26.2533 9.26333 26.2 9.37 26.2H11.594C11.69 26.2 11.738 26.2533 11.738 26.36V27.376C11.738 27.4827 11.69 27.536 11.594 27.536H9.37ZM12.3446 39.664C12.222 39.664 12.1606 39.5973 12.1606 39.464V38.216C12.1606 38.12 12.2006 38.0613 12.2806 38.04L12.9206 37.816L13.3606 37.32C13.4086 37.272 13.438 37.2293 13.4486 37.192C13.4593 37.1547 13.4646 37.1093 13.4646 37.056V28.4C13.4646 28.2667 13.5313 28.2 13.6646 28.2H15.8006C15.934 28.2 16.0006 28.2667 16.0006 28.4V37.6C16.0006 37.7333 15.9553 37.848 15.8646 37.944L14.9206 38.976L13.9046 39.544C13.7713 39.624 13.638 39.664 13.5046 39.664H12.3446ZM13.6246 27.536C13.518 27.536 13.4646 27.4827 13.4646 27.376V26.36C13.4646 26.2533 13.518 26.2 13.6246 26.2H15.8486C15.9446 26.2 15.9926 26.2533 15.9926 26.36V27.376C15.9926 27.4827 15.9446 27.536 15.8486 27.536H13.6246ZM18.0663 37C17.9329 37 17.8663 36.9333 17.8663 36.8V28.4C17.8663 28.2667 17.9329 28.2 18.0663 28.2H22.3463C22.4689 28.2 22.5756 28.2453 22.6663 28.336L24.2663 29.936C24.3569 30.0213 24.4023 30.128 24.4023 30.256V36.8C24.4023 36.9333 24.3356 37 24.2023 37H22.0663C21.9329 37 21.8663 36.9333 21.8663 36.8V30.576C21.8663 30.3253 21.7409 30.2 21.4903 30.2H20.4023V36.8C20.4023 36.9333 20.3356 37 20.2023 37H18.0663ZM28.2725 37C28.1498 37 28.0432 36.9547 27.9525 36.864L26.3525 35.264C26.2618 35.1787 26.2165 35.072 26.2165 34.944V30.256C26.2165 30.128 26.2618 30.0213 26.3525 29.936L27.9525 28.336C28.0432 28.2453 28.1498 28.2 28.2725 28.2H32.5525C32.6858 28.2 32.7525 28.2667 32.7525 28.4V36.8C32.7525 36.9333 32.6858 37 32.5525 37H30.8885C30.8192 37 30.7658 36.9867 30.7285 36.96C30.6965 36.9333 30.6592 36.9013 30.6165 36.864L30.2165 36.464L29.8165 36.864C29.7312 36.9547 29.6245 37 29.4965 37H28.2725ZM29.2085 35.136H29.7685C29.9392 35.136 30.0565 35.1013 30.1205 35.032C30.1845 34.9627 30.2165 34.84 30.2165 34.664V30.064H29.2085C29.0325 30.064 28.9125 30.0987 28.8485 30.168C28.7845 30.2373 28.7525 30.36 28.7525 30.536V34.664C28.7525 34.84 28.7845 34.9627 28.8485 35.032C28.9125 35.1013 29.0325 35.136 29.2085 35.136ZM34.7203 37C34.5869 37 34.5203 36.9333 34.5203 36.8V26.536C34.5203 26.4027 34.5869 26.336 34.7203 26.336H36.8563C36.9896 26.336 37.0563 26.4027 37.0563 26.536V36.8C37.0563 36.9333 36.9896 37 36.8563 37H34.7203ZM40.8194 37C40.6967 37 40.59 36.9547 40.4994 36.864L38.8994 35.264C38.8087 35.1787 38.7634 35.072 38.7634 34.944V30.256C38.7634 30.128 38.8087 30.0213 38.8994 29.936L40.4994 28.336C40.59 28.2453 40.6967 28.2 40.8194 28.2H42.0434C42.1714 28.2 42.278 28.2453 42.3634 28.336L42.7634 28.736V26.536C42.7634 26.4027 42.83 26.336 42.9634 26.336H45.0994C45.2327 26.336 45.2994 26.4027 45.2994 26.536V36.8C45.2994 36.9333 45.2327 37 45.0994 37H43.4354C43.366 37 43.3127 36.9867 43.2754 36.96C43.2434 36.9333 43.206 36.9013 43.1634 36.864L42.7634 36.464L42.3634 36.864C42.278 36.9547 42.1714 37 42.0434 37H40.8194ZM41.7554 35.136H42.3154C42.486 35.136 42.6034 35.1013 42.6674 35.032C42.7314 34.9627 42.7634 34.84 42.7634 34.664V30.064H41.7554C41.5794 30.064 41.4594 30.0987 41.3954 30.168C41.3314 30.2373 41.2994 30.36 41.2994 30.536V34.664C41.2994 34.84 41.3314 34.9627 41.3954 35.032C41.4594 35.1013 41.5794 35.136 41.7554 35.136Z" fill="#FF6F20"/>
<circle cx="62" cy="48" r="2" fill="#FF6F20"/>
</svg>
